<?xml version="1.0" standalone="no"?>
<!DOCTYPE svg PUBLIC "-//W3C//DTD SVG 20010904//EN"
 "http://www.w3.org/TR/2001/REC-SVG-20010904/DTD/svg10.dtd">
<svg version="1.0" xmlns="http://www.w3.org/2000/svg"
 width="1200.000000pt" height="1317.000000pt" viewBox="0 0 1200.000000 1317.000000"
 preserveAspectRatio="xMidYMid meet">

<g transform="translate(0.000000,1317.000000) scale(0.100000,-0.100000)"
fill="#000000" stroke="none">
<path d="M1730 11834 c-216 -56 -393 -237 -450 -460 -20 -76 -20 -132 -20
-4780 0 -3340 3 -4718 11 -4756 6 -29 31 -95 56 -147 80 -167 225 -284 409
-331 76 -20 130 -20 4238 -20 2860 0 4188 3 4246 11 249 31 446 193 528 433
l27 81 0 2480 0 2480 -975 3 c-536 1 -985 0 -997 -3 l-22 -5 -3 -458 -3 -457
-33 -67 c-38 -77 -92 -130 -171 -166 -81 -38 -191 -37 -277 2 -76 34 -144 102
-181 181 l-28 60 0 1345 0 1345 29 62 c37 82 112 152 191 182 174 65 360 -9
442 -177 l28 -57 3 -462 3 -463 999 0 1000 0 0 1798 c0 2005 4 1870 -72 2021
-73 146 -192 248 -365 314 l-58 22 -4250 2 c-3673 2 -4257 0 -4305 -13z m8564
-34 c113 -29 190 -73 277 -160 56 -55 86 -95 113 -150 67 -137 66 -123 65
-1040 l0 -825 -28 60 c-53 114 -167 240 -248 278 l-22 10 -3 651 -3 651 -26
56 c-33 69 -89 127 -155 160 l-49 24 -4175 3 c-4614 2 -4230 8 -4322 -62 -25
-19 -59 -56 -76 -83 -60 -93 -62 -118 -62 -750 l0 -573 -145 0 -145 0 0 613
c0 672 2 691 60 815 55 117 162 227 275 282 129 63 -230 59 4381 59 4162 1
4212 1 4288 -19z m-38 -342 c59 -31 108 -84 138 -147 21 -45 21 -60 24 -678 2
-348 -1 -633 -5 -633 -5 0 -34 9 -64 19 -31 11 -93 25 -139 30 -56 7 -663 11
-1820 11 -1937 0 -1807 4 -1960 -72 -158 -79 -281 -235 -327 -414 -17 -65 -18
-202 -18 -2329 l0 -2260 23 -75 c62 -200 220 -360 417 -423 l70 -22 1835 0
1835 0 78 26 77 27 -2 -1297 c-3 -1294 -3 -1296 -24 -1342 -31 -66 -78 -114
-142 -146 l-57 -28 -4185 0 -4185 0 -51 27 c-59 31 -108 84 -138 147 -21 46
-21 49 -24 1308 l-2 1263 822 2 823 3 0 2795 0 2795 -823 3 -823 2 3 593 c4
689 0 661 97 758 42 41 72 62 107 73 43 13 527 14 4219 13 l4170 -2 51 -27z
m19 -1447 c89 -23 210 -88 274 -146 78 -73 128 -149 165 -255 l31 -85 0 -900
0 -900 -965 0 -965 0 -1 448 -2 449 -36 73 c-61 124 -172 201 -304 212 -167
14 -320 -75 -390 -225 l-27 -57 0 -1360 0 -1360 24 -60 c29 -72 118 -166 186
-196 72 -32 164 -48 224 -38 122 19 231 101 287 214 l29 60 3 453 3 452 970 0
970 0 -3 -907 -3 -908 -23 -65 c-69 -191 -203 -325 -389 -388 l-78 -27 -1797
-3 c-1995 -3 -1876 -6 -2015 64 -141 71 -241 187 -297 344 l-31 85 0 2240 c0
1814 3 2253 13 2310 46 242 248 444 485 484 29 5 851 8 1832 7 1411 -2 1790
-5 1830 -15z m-7055 -2761 l0 -2770 -962 2 -963 3 -3 2768 -2 2767 965 0 965
0 0 -2770z m7528 -4080 l-3 -1295 -27 -81 c-67 -196 -218 -339 -423 -401 -57
-17 -254 -18 -4258 -21 -4655 -3 -4269 -8 -4417 64 -110 54 -217 164 -269 275
-21 46 -44 108 -50 137 -8 37 -11 435 -11 1327 l0 1275 145 0 145 0 2 -1267 3
-1268 27 -57 c31 -66 90 -127 156 -159 l47 -24 4195 0 4195 0 55 26 c30 14 72
44 94 65 21 22 51 64 65 94 l26 55 5 1312 5 1312 45 30 c92 61 182 167 228
269 17 36 17 32 20 -168 1 -113 1 -788 0 -1500z"/>
<path d="M4082 10665 c-82 -18 -195 -73 -258 -127 -139 -118 -233 -303 -234
-460 l0 -48 260 0 c239 0 261 1 266 18 14 41 30 65 55 78 21 11 117 14 487 14
509 2 497 3 544 -62 17 -25 23 -46 23 -88 -1 -66 -25 -112 -75 -143 -34 -22
-43 -22 -545 -27 -492 -5 -512 -6 -575 -27 -191 -65 -337 -209 -408 -405 l-27
-73 0 -320 0 -320 1075 0 1075 0 3 263 2 262 -815 0 c-448 0 -815 2 -815 5 0
4 7 19 15 35 30 59 26 58 566 63 551 4 557 5 699 75 86 42 190 135 246 220 21
31 51 95 68 142 26 74 30 102 34 226 5 161 -11 249 -70 370 -50 103 -167 218
-278 273 -142 69 -158 71 -740 70 -395 0 -530 -4 -578 -14z m1205 -41 c275
-94 433 -321 433 -623 0 -135 -20 -226 -69 -326 -96 -193 -267 -308 -497 -335
-49 -5 -285 -10 -525 -10 -436 0 -436 0 -469 -23 -37 -24 -67 -68 -72 -107
l-3 -25 818 -3 817 -2 0 -230 0 -230 -1050 0 -1050 0 0 268 c0 305 8 361 67
481 51 104 159 212 263 263 134 66 150 68 678 68 509 0 514 0 571 53 52 48 76
147 50 214 -15 40 -57 82 -104 104 -37 17 -73 19 -470 19 -236 0 -448 -5 -469
-10 -51 -11 -87 -38 -106 -78 l-15 -32 -234 0 -233 0 7 58 c31 256 230 469
490 522 22 5 281 7 575 6 514 -1 537 -2 597 -22z"/>
<path d="M8155 4050 c-229 -27 -439 -169 -533 -360 -68 -138 -86 -259 -57
-394 49 -234 233 -419 484 -489 72 -20 103 -21 621 -24 367 -3 554 -7 573 -15
55 -22 74 -105 37 -165 l-20 -33 -533 0 c-499 0 -534 1 -567 19 -25 13 -39 30
-50 60 l-14 41 -275 0 -274 0 6 -72 c22 -273 246 -501 544 -558 30 -5 297 -10
630 -10 639 -1 629 -2 770 65 221 104 355 297 370 530 17 273 -156 519 -436
619 l-86 31 -580 5 c-413 4 -586 8 -600 17 -57 33 -73 90 -41 152 33 62 32 62
603 59 418 -2 523 -6 545 -17 25 -13 58 -64 58 -90 0 -8 77 -11 273 -9 l272 3
3 43 c4 58 -21 152 -65 241 -42 87 -155 207 -243 258 -80 47 -186 81 -287 93
-98 11 -1033 11 -1128 0z"/>
<path d="M2105 4038 c-3 -7 -4 -458 -3 -1003 l3 -990 903 -3 c1004 -2 983 -4
1121 64 93 46 174 126 222 219 50 96 57 142 52 349 -3 148 -7 187 -22 222 -22
49 -87 116 -131 134 l-31 13 50 28 c62 35 108 90 126 151 20 68 20 364 0 442
-42 161 -161 288 -333 355 l-67 26 -943 3 c-758 2 -943 0 -947 -10z m1747
-555 c37 -37 42 -86 13 -129 -35 -54 -37 -54 -647 -52 l-563 3 -3 108 -3 107
585 -2 586 -3 32 -32z m-15 -729 c60 -44 59 -128 -1 -165 -30 -18 -59 -19
-608 -19 l-578 0 0 98 c0 54 3 102 7 106 4 3 264 5 579 4 563 -3 573 -3 601
-24z"/>
<path d="M4857 4043 c-4 -3 -7 -326 -7 -717 0 -587 3 -723 15 -781 51 -244
274 -450 535 -495 45 -8 244 -10 640 -8 571 3 576 4 645 27 228 75 386 231
452 446 17 56 18 110 18 795 l0 735 -275 0 -275 0 -5 -660 c-6 -730 -1 -685
-72 -751 -71 -67 -57 -66 -516 -64 -394 1 -418 2 -461 21 -56 25 -96 61 -124
114 -22 40 -22 46 -25 693 l-3 652 -268 0 c-147 0 -271 -3 -274 -7z"/>
<path d="M6645 9716 c-22 -7 -54 -20 -70 -28 -48 -25 -120 -109 -141 -163 -19
-49 -19 -106 -19 -2270 l0 -2220 22 -47 c30 -66 104 -141 166 -169 l52 -24
1775 0 1775 0 56 28 c66 32 132 99 162 165 22 47 22 50 22 777 l0 730 -665 0
-665 0 -5 -490 c-5 -487 -5 -490 -28 -533 -33 -63 -96 -118 -159 -142 -54 -20
-71 -21 -502 -18 l-446 3 -57 28 c-32 16 -73 46 -92 69 -71 82 -66 -54 -66
1843 0 1941 -8 1768 85 1861 86 86 80 85 606 82 l454 -3 53 -30 c59 -32 91
-66 125 -129 22 -40 22 -50 27 -526 l5 -485 673 -3 672 -2 0 720 c0 705 0 720
-21 775 -29 77 -105 154 -184 186 l-60 24 -1755 2 c-1399 1 -1763 -1 -1795
-11z m3590 -40 c68 -27 156 -115 178 -180 15 -45 17 -121 17 -748 l0 -698
-642 2 -643 3 -5 475 c-5 472 -5 475 -28 522 -31 62 -115 138 -178 161 -44 15
-95 17 -501 17 -432 0 -455 -1 -507 -21 -63 -23 -134 -86 -164 -146 -11 -21
-25 -65 -31 -98 -16 -84 -15 -3353 0 -3427 6 -29 18 -66 26 -82 25 -48 95
-116 148 -144 l50 -27 461 -3 c446 -3 463 -2 517 18 70 26 134 83 172 151 l30
54 3 483 3 482 637 -2 637 -3 0 -710 c0 -705 0 -710 -21 -756 -28 -60 -93
-125 -153 -153 l-46 -21 -1765 0 -1765 0 -57 28 c-64 32 -111 80 -142 146
l-21 46 -3 2185 c-2 1540 1 2200 9 2237 21 102 105 191 206 219 39 10 381 13
1788 11 1691 -2 1741 -3 1790 -21z"/>
<path d="M1587 9713 c-4 -3 -7 -1115 -7 -2470 l0 -2463 673 2 672 3 0 2465 0
2465 -666 3 c-366 1 -669 -1 -672 -5z m1303 -2463 l0 -2440 -637 2 -638 3 -3
2438 -2 2437 640 0 640 0 0 -2440z"/>
</g>
</svg>
