<?xml version="1.0" standalone="no"?>
<!DOCTYPE svg PUBLIC "-//W3C//DTD SVG 20010904//EN"
 "http://www.w3.org/TR/2001/REC-SVG-20010904/DTD/svg10.dtd">
<svg version="1.0" xmlns="http://www.w3.org/2000/svg"
 width="450.000000pt" height="453.000000pt" viewBox="0 0 450.000000 453.000000"
 preserveAspectRatio="xMidYMid meet">

<g transform="translate(0.000000,453.000000) scale(0.100000,-0.100000)"
fill="#000000" stroke="none">
<path d="M2310 4453 c0 -5 -15 -7 -34 -5 -40 5 -127 -41 -194 -103 -24 -22
-57 -52 -73 -67 -16 -14 -29 -31 -29 -37 0 -6 -4 -11 -9 -11 -10 0 -261 -246
-261 -256 0 -7 -41 -46 -111 -106 -27 -23 -49 -48 -49 -55 0 -7 -3 -13 -7 -13
-11 0 -283 -265 -283 -276 0 -5 -13 -19 -28 -31 -52 -41 -72 -60 -72 -69 0 -5
-9 -16 -20 -24 -11 -8 -20 -18 -20 -23 0 -12 -47 -57 -60 -57 -11 0 -210 -196
-210 -206 0 -7 -53 -57 -103 -99 -20 -16 -37 -34 -37 -40 0 -5 -19 -26 -41
-45 -23 -19 -53 -48 -67 -64 -58 -61 -101 -103 -150 -145 -29 -25 -52 -49 -52
-55 0 -6 -15 -22 -32 -36 -18 -14 -46 -39 -63 -56 -164 -170 -195 -212 -198
-266 -1 -23 2 -60 6 -81 6 -27 5 -37 -2 -32 -6 3 -11 1 -11 -5 0 -6 7 -10 16
-8 10 2 19 -3 21 -9 3 -7 0 -13 -7 -13 -6 0 -8 -5 -4 -11 4 -8 8 -8 13 0 4 6
229 -213 521 -506 283 -283 508 -512 500 -507 -15 8 -20 12 -96 82 -23 20 -51
44 -63 52 -11 8 -21 18 -21 23 0 5 -22 30 -50 56 -27 26 -50 51 -50 57 0 5
-14 18 -30 29 -17 11 -33 28 -36 38 -3 9 -9 17 -14 17 -11 0 -90 76 -90 87 0
5 -9 15 -21 23 -32 22 -79 67 -79 75 0 7 -25 30 -103 97 -21 18 -49 43 -62 56
-14 13 -25 18 -25 11 0 -6 28 -36 63 -67 58 -53 407 -400 407 -405 0 -1 35
-38 78 -82 103 -105 221 -209 229 -201 4 3 1 6 -5 6 -7 0 -12 8 -12 17 0 10
207 -189 488 -469 441 -440 491 -487 532 -498 55 -15 122 -7 164 20 17 10 482
470 1033 1022 1058 1059 1023 1022 1023 1108 0 86 35 48 -1028 1113 -591 591
-999 1007 -989 1007 10 0 21 -8 24 -17 7 -17 39 -53 48 -53 12 0 3 23 -18 44
-27 27 -96 64 -77 41 7 -8 9 -15 4 -15 -13 1 -41 24 -42 35 -1 12 -32 20 -32
8z m-86 -295 c21 -30 20 -51 -4 -73 -15 -14 -20 -31 -20 -69 l0 -51 -105 -105
-105 -105 0 -127 c0 -74 4 -129 10 -133 14 -9 13 -58 -2 -73 -17 -17 -48 -15
-70 5 -22 20 -23 43 -3 69 11 14 14 51 15 149 l0 130 110 110 c99 99 110 113
110 146 0 23 -7 42 -20 54 -24 22 -25 43 -4 73 10 14 26 22 44 22 18 0 34 -8
44 -22z m146 2 c11 -11 20 -26 20 -34 0 -7 -9 -25 -20 -39 -12 -15 -20 -40
-20 -64 0 -36 8 -46 110 -148 l110 -110 0 -129 c0 -108 3 -133 17 -148 16 -18
16 -22 2 -46 -21 -37 -67 -37 -88 0 -14 24 -14 28 2 46 14 15 17 39 17 143 l0
124 -110 110 c-107 107 -110 111 -110 155 0 25 -7 54 -15 64 -46 61 31 130 85
76z m-78 -347 c22 -20 23 -43 3 -69 -12 -16 -14 -76 -15 -362 0 -337 0 -343
22 -372 l22 -30 -21 -28 c-25 -33 -47 -38 -78 -18 -29 19 -34 66 -10 86 13 11
15 63 15 362 0 304 -2 352 -16 373 -15 23 -15 27 0 50 19 29 51 32 78 8z
m-492 -103 c24 -24 26 -57 5 -80 -12 -13 -15 -59 -15 -245 l-1 -229 90 -68
c58 -44 96 -66 106 -62 21 8 55 -23 55 -51 0 -12 -9 -30 -21 -41 -19 -17 -23
-17 -47 -3 -15 8 -28 24 -30 35 -2 13 -42 49 -102 94 l-100 74 0 238 c0 225
-1 239 -20 258 -26 26 -25 48 2 77 26 28 52 29 78 3z m970 10 c31 -17 42 -45
28 -74 -6 -14 -15 -26 -20 -26 -4 0 -8 -109 -8 -242 l0 -243 -100 -75 c-55
-41 -100 -80 -100 -87 0 -18 -37 -53 -55 -53 -18 0 -55 35 -55 53 0 25 28 51
58 53 19 1 61 25 115 65 l86 64 1 231 c0 194 -2 234 -15 244 -23 19 -19 66 7
84 26 19 33 19 58 6z m-1238 -247 c24 -21 23 -59 -2 -80 -17 -15 -20 -30 -20
-99 l0 -81 115 -94 c63 -52 120 -94 127 -95 7 0 21 -2 31 -2 23 -2 40 -47 27
-72 -23 -43 -80 -33 -98 17 -5 17 -54 65 -126 123 l-116 95 0 96 c0 83 -3 98
-20 114 -24 22 -25 43 -4 73 18 26 60 29 86 5z m1528 -3 c11 -11 20 -26 20
-34 0 -7 -9 -25 -20 -39 -17 -21 -20 -41 -21 -119 l0 -93 -115 -94 c-73 -60
-120 -107 -129 -127 -15 -36 -45 -50 -74 -35 -26 14 -35 45 -21 71 10 19 16
22 52 24 9 1 66 42 127 91 l110 90 0 85 c0 60 -4 91 -14 104 -46 61 31 130 85
76z m-1051 -146 c12 -15 21 -33 21 -40 0 -20 70 -72 90 -67 20 5 60 -29 60
-52 0 -8 -9 -24 -20 -35 -11 -11 -27 -20 -35 -20 -19 0 -55 36 -55 54 0 23
-70 71 -97 68 -55 -8 -86 71 -41 102 32 23 54 20 77 -10z m571 6 c11 -11 20
-29 20 -40 0 -29 -37 -62 -65 -58 -30 4 -102 -53 -107 -84 -2 -14 -13 -26 -30
-32 -57 -20 -94 57 -43 90 13 8 29 13 35 9 15 -9 90 53 90 76 0 25 35 59 60
59 11 0 29 -9 40 -20z m-1426 -235 c11 -11 38 -15 109 -15 l95 0 102 -125 c56
-69 109 -125 118 -125 22 0 52 -30 52 -51 0 -25 -27 -49 -55 -49 -25 0 -62 41
-51 58 3 5 -38 61 -90 125 l-96 117 -80 0 c-66 0 -84 -4 -109 -22 -28 -21 -32
-21 -57 -7 -17 9 -28 25 -30 43 -6 53 55 87 92 51z m2296 -5 c25 -25 25 -41
-1 -74 -25 -31 -47 -33 -82 -6 -20 16 -40 20 -104 20 l-78 0 -90 -111 c-49
-61 -93 -123 -96 -138 -9 -42 -18 -51 -48 -51 -35 0 -51 17 -51 53 0 22 7 31
34 42 23 10 66 53 127 127 51 62 98 116 103 121 6 4 51 7 99 6 70 -1 92 2 105
15 22 22 58 20 82 -4z m-622 -232 c9 -9 12 -149 12 -567 0 -502 -2 -556 -17
-573 -15 -17 -46 -18 -562 -18 -479 0 -549 2 -569 16 l-22 15 0 550 c0 360 4
557 10 570 10 18 27 19 573 19 425 0 566 -3 575 -12z m-1905 -38 c24 -19 40
-20 259 -20 l234 0 75 -100 c42 -57 81 -99 91 -100 10 0 25 -11 34 -25 15 -23
15 -27 0 -50 -10 -15 -26 -25 -40 -25 -28 0 -59 32 -54 57 2 12 -25 56 -66
111 l-68 92 -224 0 c-211 0 -225 -1 -244 -20 -11 -11 -29 -20 -40 -20 -26 0
-60 34 -60 60 0 25 34 60 59 60 10 0 30 -9 44 -20z m2759 3 c25 -23 23 -68 -4
-87 -30 -21 -51 -20 -73 4 -17 19 -31 20 -244 20 l-226 -1 -67 -90 c-39 -52
-68 -100 -68 -114 0 -45 -58 -73 -88 -43 -28 28 -8 88 29 88 10 0 48 41 90
100 l74 99 240 1 c228 0 241 1 258 20 20 24 54 26 79 3z m-2558 -209 c9 -8 16
-24 16 -34 0 -42 -63 -67 -90 -35 -10 12 -38 15 -129 15 l-116 0 -110 -110
c-109 -110 -110 -110 -158 -110 -34 0 -57 -7 -78 -22 -28 -21 -32 -21 -57 -7
-33 18 -41 62 -16 90 20 23 53 25 80 4 10 -8 37 -15 59 -15 38 0 46 6 145 105
l105 105 131 0 c105 0 134 3 144 15 16 20 54 19 74 -1z m180 -3 c10 -11 16
-30 15 -43 -4 -29 46 -98 72 -98 10 0 26 -11 35 -25 14 -21 15 -31 6 -50 -23
-50 -112 -25 -98 27 6 25 -50 92 -82 98 -14 3 -33 17 -41 31 -13 24 -13 29 2
53 21 32 66 35 91 7z m2000 3 c32 -32 10 -94 -34 -94 -26 0 -80 -69 -80 -102
0 -18 -8 -33 -25 -44 -23 -15 -27 -15 -50 0 -18 12 -25 25 -25 47 0 25 6 32
35 45 42 17 79 65 81 105 1 16 7 36 14 44 16 20 64 19 84 -1z m166 1 c10 -12
39 -15 144 -15 l131 0 105 -105 c103 -103 105 -105 151 -105 29 0 51 6 59 15
26 31 81 12 95 -32 4 -17 -1 -29 -19 -48 -30 -30 -45 -31 -79 -5 -16 13 -40
20 -68 20 -41 0 -47 4 -154 110 l-112 110 -120 0 c-95 0 -123 -3 -133 -15 -19
-23 -57 -18 -76 10 -15 23 -15 27 0 50 19 28 57 33 76 10z m-1851 -307 c13
-23 13 -29 -2 -52 -20 -30 -67 -36 -87 -11 -11 13 -63 15 -362 15 -304 0 -352
-2 -373 -16 -23 -15 -27 -15 -50 0 -29 19 -32 51 -8 78 20 22 46 23 63 3 11
-13 64 -15 366 -15 195 0 354 4 354 8 0 15 44 30 65 22 11 -4 26 -18 34 -32z
m1382 16 c9 -11 74 -14 357 -14 310 0 347 2 364 17 24 21 67 8 79 -24 6 -17 2
-29 -16 -50 -24 -28 -24 -28 -55 -10 -28 15 -66 17 -370 17 -302 0 -342 -2
-368 -17 -24 -14 -37 -15 -59 -7 -24 8 -28 15 -28 49 0 31 5 42 23 51 27 13
56 8 73 -12z m-2531 -69 c8 -9 30 -15 59 -15 46 0 48 -2 156 -110 l110 -110
120 0 c90 1 125 4 139 15 26 19 45 19 68 -2 26 -23 23 -59 -7 -79 -23 -15 -27
-15 -50 0 -19 13 -51 16 -152 16 l-128 0 -110 110 c-104 105 -112 110 -151
110 -25 0 -47 -6 -54 -15 -29 -35 -100 -8 -100 37 0 48 71 78 100 43z m3677
-11 c15 -24 15 -29 2 -53 -18 -31 -68 -40 -92 -17 -9 9 -33 16 -53 16 -35 0
-47 -9 -149 -110 l-112 -110 -127 0 c-97 0 -132 -4 -150 -15 -46 -30 -102 17
-76 65 15 28 56 36 79 16 14 -13 41 -16 137 -16 l119 0 110 110 c109 110 110
110 158 110 30 0 54 6 63 15 25 25 71 19 91 -11z m-2725 -51 c10 -9 18 -23 18
-31 0 -21 -30 -52 -50 -52 -23 0 -75 -77 -72 -106 4 -27 -30 -64 -58 -64 -26
0 -60 34 -60 60 0 25 34 60 58 60 22 0 86 76 77 91 -11 16 23 59 47 59 12 0
30 -7 40 -17z m1752 1 c9 -8 16 -26 16 -38 0 -31 50 -95 74 -96 52 -1 76 -75
34 -104 -31 -22 -45 -20 -74 9 -17 17 -23 32 -19 45 7 24 -50 100 -75 100 -24
0 -40 20 -40 50 0 14 5 31 12 38 17 17 54 15 72 -4z m-1564 -134 c32 -32 23
-66 -23 -85 -17 -7 -58 -50 -101 -106 l-71 -94 -242 -3 c-198 -2 -243 -5 -253
-17 -19 -23 -66 -19 -84 7 -21 29 -20 51 2 70 29 26 50 28 75 7 23 -18 42 -19
251 -19 l226 0 67 89 c40 54 67 100 68 116 1 27 27 55 52 55 7 0 22 -9 33 -20z
m1372 3 c10 -9 18 -27 18 -41 0 -15 26 -60 66 -113 l66 -89 226 0 c194 0 228
2 243 16 24 22 69 21 86 -2 18 -24 16 -59 -3 -78 -20 -20 -68 -21 -84 -1 -10
13 -51 15 -250 15 l-238 0 -73 98 c-42 57 -85 103 -103 112 -36 17 -46 58 -21
84 21 20 44 20 67 -1z m-1366 -238 c21 -32 10 -63 -26 -72 -19 -6 -59 -46
-129 -130 l-102 -123 -93 0 c-71 0 -97 -4 -106 -15 -16 -20 -64 -19 -84 1 -20
20 -20 58 0 78 20 20 68 21 84 1 9 -11 34 -15 96 -15 l83 0 96 115 c53 63 94
119 90 125 -4 6 1 22 9 35 22 33 60 33 82 0z m1366 8 c10 -9 18 -26 18 -38 0
-13 38 -68 92 -134 l91 -111 84 0 c63 0 88 4 100 16 24 23 74 14 92 -17 13
-24 13 -29 -2 -53 -20 -30 -66 -36 -91 -11 -11 11 -38 15 -109 15 l-95 0 -102
125 c-57 70 -110 125 -119 125 -25 0 -41 20 -41 52 0 44 48 62 82 31z m-1177
-193 c28 -31 10 -73 -33 -80 -23 -3 -68 -34 -142 -95 l-110 -90 0 -86 c0 -65
4 -90 15 -99 34 -28 6 -100 -39 -100 -27 0 -40 9 -55 39 -11 20 -10 27 8 52
18 24 21 43 21 121 l0 93 120 98 c66 54 120 104 120 111 0 23 31 56 54 56 13
0 31 -9 41 -20z m226 -1 c11 -11 18 -27 15 -36 -3 -8 -6 -18 -6 -23 0 -9 -35
-23 -60 -24 -8 -1 -54 -30 -102 -66 l-88 -65 0 -231 c0 -197 2 -233 16 -244
24 -21 14 -72 -17 -89 -24 -13 -29 -13 -53 2 -30 20 -36 66 -11 91 12 12 15
54 15 253 l0 239 100 74 c55 41 100 79 100 85 0 21 31 55 51 55 10 0 28 -9 40
-21z m269 1 c11 -11 20 -29 20 -40 0 -11 -9 -29 -20 -40 -19 -19 -20 -33 -20
-364 0 -293 2 -345 15 -356 31 -26 5 -90 -36 -90 -42 0 -66 64 -34 90 13 11
15 60 15 349 -1 316 -2 339 -20 366 -11 17 -20 38 -20 48 0 23 35 57 60 57 11
0 29 -9 40 -20z m252 3 c10 -9 18 -23 18 -32 1 -9 46 -49 100 -90 l100 -73 0
-235 c0 -220 1 -236 20 -260 27 -35 25 -57 -6 -82 -33 -26 -49 -26 -74 -1 -25
25 -26 62 -1 84 17 16 19 36 20 240 l2 223 -96 72 c-52 39 -100 69 -106 66
-20 -13 -59 24 -59 55 0 46 47 65 82 33z m230 0 c10 -9 18 -23 18 -33 0 -9 54
-61 120 -115 l120 -99 0 -93 c0 -80 3 -96 20 -113 11 -11 20 -29 20 -40 0 -26
-34 -60 -60 -60 -26 0 -60 34 -60 60 0 11 9 29 20 40 17 17 20 33 20 99 l0 80
-117 95 c-70 57 -126 96 -140 96 -20 0 -53 33 -53 52 0 14 40 48 57 48 9 0 25
-7 35 -17z m-617 -193 c28 -31 10 -73 -33 -80 -40 -6 -100 -53 -104 -81 -2
-12 -15 -31 -30 -42 -23 -17 -32 -19 -52 -9 -57 26 -36 112 27 112 38 0 107
51 107 80 0 39 56 52 85 20z m267 -19 c23 -46 66 -80 102 -81 38 0 66 -26 66
-61 0 -34 -38 -64 -70 -54 -22 7 -53 47 -48 63 5 15 -72 72 -98 72 -24 0 -54
24 -54 43 0 7 7 23 16 35 24 34 64 26 86 -17z m-426 -286 c15 -23 15 -27 0
-50 -12 -19 -16 -51 -16 -144 l0 -119 110 -113 c108 -111 110 -114 110 -160 0
-29 6 -51 15 -59 34 -28 6 -100 -40 -100 -51 0 -77 53 -45 93 12 15 20 40 20
64 0 36 -8 46 -110 148 l-110 110 0 131 c0 105 -3 134 -15 144 -20 16 -19 39
2 62 23 26 59 23 79 -7z m578 9 c20 -20 20 -48 1 -68 -12 -11 -15 -42 -15
-142 l0 -128 -110 -111 c-100 -101 -110 -115 -110 -148 0 -24 7 -44 20 -57 11
-11 20 -29 20 -40 0 -11 -9 -29 -20 -40 -11 -11 -29 -20 -40 -20 -26 0 -60 34
-60 60 0 11 9 29 20 40 14 14 20 33 20 68 0 47 1 48 105 152 l105 105 0 127
c0 74 -4 129 -10 133 -14 9 -13 58 2 73 17 17 54 15 72 -4z"/>
<path d="M2156 4157 c-38 -27 2 -95 42 -71 24 16 28 55 6 71 -10 7 -21 13 -24
13 -3 0 -14 -6 -24 -13z"/>
<path d="M2314 4160 c-42 -16 -40 -66 3 -76 16 -4 30 -1 40 9 10 10 13 24 9
40 -7 29 -23 37 -52 27z"/>
<path d="M2220 3001 c-16 -31 4 -63 37 -59 34 4 52 32 37 56 -16 26 -60 28
-74 3z"/>
<path d="M1731 3696 c-7 -8 -11 -25 -9 -38 2 -19 9 -23 38 -23 33 0 35 2 35
35 0 30 -4 35 -26 38 -14 2 -31 -4 -38 -12z"/>
<path d="M2710 3691 c-16 -31 4 -63 37 -59 34 4 52 32 37 56 -16 26 -60 28
-74 3z"/>
<path d="M1466 3467 c-38 -27 2 -95 42 -71 24 16 28 55 6 71 -10 7 -21 13 -24
13 -3 0 -14 -6 -24 -13z"/>
<path d="M2990 3460 c-11 -11 -20 -24 -20 -29 0 -16 30 -41 49 -41 38 0 54 45
25 74 -20 21 -30 20 -54 -4z"/>
<path d="M1930 3311 c-16 -31 4 -63 37 -59 34 4 52 32 37 56 -16 26 -60 28
-74 3z"/>
<path d="M2510 3316 c-6 -8 -10 -25 -8 -38 2 -19 9 -23 38 -23 31 0 35 3 38
29 5 42 -41 64 -68 32z"/>
<path d="M1080 3071 c-16 -31 4 -63 37 -59 55 7 55 69 0 76 -18 2 -29 -3 -37
-17z"/>
<path d="M3370 3071 c-16 -31 4 -63 37 -59 34 4 52 32 37 56 -16 26 -60 28
-74 3z"/>
<path d="M1720 2290 l0 -530 535 0 535 0 0 530 0 530 -535 0 -535 0 0 -530z
m280 324 c0 -186 0 -187 -25 -210 -33 -31 -33 -77 0 -109 30 -30 64 -32 99 -4
35 28 36 81 1 113 -25 23 -25 24 -25 210 l0 187 93 -3 92 -3 3 -183 2 -184
-25 -20 c-36 -28 -35 -88 1 -117 49 -39 108 -16 120 45 4 24 0 37 -20 61 -26
31 -26 31 -26 217 l0 186 90 0 90 0 0 -186 c0 -186 0 -186 -26 -217 -62 -73
25 -165 100 -106 36 29 37 89 1 117 l-25 20 2 184 3 183 120 0 120 0 3 -507 2
-508 -54 0 c-37 0 -54 4 -53 13 0 6 -1 44 -1 83 -2 70 -3 73 -46 121 -36 40
-44 55 -43 86 1 47 -29 80 -72 80 -43 0 -71 -28 -71 -71 0 -46 24 -72 66 -72
26 0 40 -9 73 -46 40 -46 41 -49 41 -120 l0 -74 -95 0 -95 0 0 81 0 81 -47 55
c-36 42 -47 62 -45 84 7 59 -45 101 -99 79 -25 -11 -49 -46 -49 -74 0 -29 41
-66 73 -66 26 0 40 -10 75 -49 41 -48 42 -52 42 -120 l0 -71 -92 0 -93 0 0 81
0 81 -47 52 c-38 43 -46 58 -45 89 1 47 -29 80 -72 80 -43 0 -71 -28 -71 -71
0 -46 24 -72 66 -72 26 0 40 -9 72 -45 36 -41 41 -53 44 -104 5 -99 22 -91
-193 -91 l-189 0 0 510 0 510 125 0 125 0 0 -186z m48 -267 c4 -20 -25 -34
-40 -19 -15 15 -1 44 19 40 10 -2 19 -11 21 -21z m238 12 c3 -6 0 -18 -9 -26
-18 -18 -37 -9 -37 18 0 21 34 27 46 8z m234 -8 c0 -27 -19 -36 -37 -18 -18
18 -9 37 18 37 12 0 19 -7 19 -19z m-477 -267 c-8 -21 -43 -18 -43 5 0 11 6
21 13 24 17 6 37 -12 30 -29z m237 5 c0 -12 -7 -19 -19 -19 -26 0 -36 17 -21
35 15 18 40 8 40 -16z m243 -5 c-8 -21 -43 -18 -43 5 0 11 6 21 13 24 17 6 37
-12 30 -29z"/>
<path d="M847 2814 c-12 -12 -8 -51 7 -64 8 -6 25 -10 38 -8 19 2 23 9 23 38
0 32 -3 35 -30 38 -17 2 -34 0 -38 -4z"/>
<path d="M3612 2808 c-27 -27 -6 -68 35 -68 29 0 48 33 33 60 -12 22 -49 27
-68 8z"/>
<path d="M412 2403 c-7 -3 -17 -13 -22 -24 -23 -43 39 -82 70 -44 26 31 -9 81
-48 68z"/>
<path d="M1230 2606 c-28 -35 11 -93 48 -70 35 22 22 84 -18 84 -10 0 -23 -7
-30 -14z"/>
<path d="M3236 2604 c-9 -8 -16 -22 -16 -29 0 -18 28 -45 45 -45 8 0 22 11 31
25 16 24 16 27 -1 45 -22 24 -38 25 -59 4z"/>
<path d="M4082 2403 c-22 -8 -34 -41 -22 -63 20 -38 87 -16 78 26 -4 20 -38
43 -56 37z"/>
<path d="M1542 2318 c-17 -17 -15 -53 3 -68 12 -10 21 -10 40 -2 40 19 29 82
-15 82 -9 0 -21 -5 -28 -12z"/>
<path d="M2926 2314 c-9 -8 -16 -22 -16 -29 0 -18 27 -45 45 -45 18 0 45 27
45 45 0 18 -27 45 -45 45 -7 0 -21 -7 -29 -16z"/>
<path d="M397 2239 c-8 -11 -12 -29 -10 -40 7 -24 48 -36 68 -19 21 18 19 57
-4 70 -28 15 -38 13 -54 -11z"/>
<path d="M4065 2236 c-27 -41 10 -80 55 -56 24 13 26 43 4 64 -22 22 -41 20
-59 -8z"/>
<path d="M1227 2034 c-12 -13 -8 -51 8 -64 9 -7 25 -10 40 -6 22 6 26 11 23
39 -3 28 -7 32 -33 35 -17 2 -34 0 -38 -4z"/>
<path d="M3232 2028 c-27 -27 -6 -68 35 -68 29 0 48 33 33 60 -12 22 -49 27
-68 8z"/>
<path d="M852 1828 c-34 -34 6 -90 48 -68 35 19 20 80 -20 80 -9 0 -21 -5 -28
-12z"/>
<path d="M3615 1827 c-13 -10 -16 -21 -11 -40 8 -34 41 -44 67 -21 23 21 24
37 3 58 -19 20 -35 20 -59 3z"/>
<path d="M1086 1551 c-34 -38 8 -86 54 -61 24 13 26 43 4 64 -21 21 -37 20
-58 -3z"/>
<path d="M3376 1548 c-27 -38 12 -81 53 -58 27 14 28 56 2 70 -28 15 -38 13
-55 -12z"/>
<path d="M1462 1178 c-27 -27 -6 -68 35 -68 29 0 48 33 33 60 -12 22 -49 27
-68 8z"/>
<path d="M1737 942 c-31 -34 -14 -72 30 -72 16 0 27 9 35 26 11 23 10 29 -11
45 -29 23 -34 24 -54 1z"/>
<path d="M2224 1626 c-12 -31 0 -61 27 -64 33 -4 53 20 45 53 -5 20 -13 25
-37 25 -16 0 -32 -6 -35 -14z"/>
<path d="M2726 947 c-22 -16 -18 -55 7 -71 39 -24 79 44 41 71 -10 7 -21 13
-24 13 -3 0 -14 -6 -24 -13z"/>
<path d="M2990 1176 c-6 -8 -10 -25 -8 -38 2 -19 9 -23 38 -23 29 0 36 4 38
23 4 28 -14 52 -38 52 -10 0 -23 -7 -30 -14z"/>
<path d="M1946 1327 c-38 -27 2 -95 42 -71 24 16 28 55 6 71 -10 7 -21 13 -24
13 -3 0 -14 -6 -24 -13z"/>
<path d="M2528 1332 c-10 -2 -21 -15 -24 -29 -9 -33 16 -58 49 -49 58 14 33
91 -25 78z"/>
<path d="M2152 488 c-27 -27 -6 -68 35 -68 29 0 48 33 33 60 -12 22 -49 27
-68 8z"/>
<path d="M2302 491 c-8 -5 -12 -21 -10 -37 3 -26 7 -29 38 -29 31 0 35 3 38
29 4 29 -10 46 -38 46 -8 0 -21 -4 -28 -9z"/>
<path d="M2480 4332 c0 -4 9 -14 21 -22 12 -8 35 -27 51 -42 17 -16 34 -28 39
-28 5 0 9 -7 9 -16 0 -9 10 -25 23 -35 12 -10 35 -29 50 -41 51 -41 107 -96
107 -105 0 -4 14 -19 32 -33 42 -33 78 -72 78 -85 0 -5 14 -21 31 -34 17 -14
45 -37 61 -53 17 -15 34 -28 39 -28 5 0 9 -7 9 -16 0 -9 10 -25 23 -35 12 -10
35 -29 50 -41 44 -36 107 -96 107 -102 0 -7 102 -106 129 -126 12 -8 21 -18
21 -23 0 -9 66 -74 99 -97 11 -8 21 -19 21 -25 0 -6 18 -27 41 -46 61 -52 119
-107 119 -113 0 -9 111 -116 121 -116 5 0 9 -9 9 -20 0 -11 4 -20 9 -20 5 0
28 -17 50 -37 22 -21 54 -49 70 -63 17 -14 31 -29 31 -35 0 -5 14 -21 31 -35
55 -46 89 -78 89 -84 0 -3 29 -35 65 -70 36 -35 65 -68 65 -73 0 -5 10 -15 21
-23 12 -8 38 -31 59 -50 21 -19 47 -42 59 -50 11 -8 21 -18 21 -23 0 -5 18
-26 40 -47 22 -21 40 -43 40 -49 0 -6 5 -11 10 -11 6 0 10 -20 10 -44 0 -26 5
-46 13 -49 10 -4 10 -7 0 -18 -7 -7 -13 -32 -13 -56 0 -24 -4 -43 -10 -43 -5
0 -10 -6 -10 -12 0 -7 -14 -24 -31 -37 -17 -14 -45 -37 -61 -53 -17 -15 -34
-28 -39 -28 -5 0 -9 -8 -9 -18 0 -10 -9 -24 -21 -32 -12 -8 -34 -26 -49 -40
-15 -14 -37 -32 -49 -40 -12 -8 -23 -22 -26 -31 -6 -19 -51 -67 -83 -89 -12
-8 -22 -19 -22 -25 0 -6 -18 -27 -40 -46 -75 -63 -100 -87 -100 -96 0 -4 -19
-24 -41 -43 -23 -19 -55 -47 -71 -62 -17 -16 -34 -28 -39 -28 -5 0 -9 -7 -9
-16 0 -15 -48 -65 -119 -124 -17 -14 -31 -29 -31 -33 0 -10 -45 -53 -79 -77
-12 -8 -21 -19 -21 -25 0 -6 -18 -27 -40 -46 -72 -61 -100 -87 -100 -94 0 -7
-110 -115 -159 -155 -17 -14 -31 -29 -31 -35 0 -5 -14 -21 -31 -35 -60 -50
-89 -78 -89 -87 0 -4 -14 -19 -31 -33 -29 -24 -75 -69 -173 -170 -24 -25 -53
-52 -65 -60 -11 -8 -21 -18 -21 -23 0 -8 -36 -44 -119 -117 -22 -19 -40 -40
-41 -45 0 -6 -9 -17 -21 -25 -37 -26 -106 -94 -118 -118 -6 -12 -18 -22 -26
-22 -8 0 -15 -4 -15 -10 0 -5 -7 -10 -15 -10 -8 0 -15 -4 -15 -10 0 -6 -37
-10 -90 -10 -53 0 -90 4 -90 10 0 6 -7 10 -15 10 -9 0 -23 6 -31 13 -38 31
-124 116 -124 122 0 10 -60 65 -71 65 -5 0 17 -28 51 -62 33 -35 60 -69 60
-75 0 -7 3 -13 8 -13 4 0 25 -16 46 -35 22 -19 53 -37 68 -40 15 -4 30 -11 33
-16 8 -11 122 -12 129 0 3 4 23 11 45 15 23 3 48 16 62 32 57 62 378 381 407
404 18 14 32 30 32 36 0 6 23 30 51 55 28 24 69 59 90 78 22 18 39 36 39 40 0
8 169 180 238 242 29 26 52 50 52 54 0 4 9 15 19 24 10 9 42 36 70 59 28 24
51 50 51 58 0 8 3 14 8 14 8 0 84 73 143 136 19 22 45 48 57 59 12 11 43 43
70 70 27 28 67 66 90 85 23 19 42 39 42 44 0 4 19 25 42 45 24 20 56 50 71 66
16 17 53 55 83 86 30 30 54 60 54 67 0 7 4 12 10 12 5 0 73 63 150 139 103
103 140 146 140 164 0 13 5 39 11 57 15 43 -5 131 -42 185 -15 22 -73 83 -130
135 -56 52 -113 108 -128 123 -47 51 -256 261 -291 293 -19 18 -47 45 -61 60
-14 16 -41 43 -60 60 -19 16 -54 54 -79 83 -25 28 -62 69 -84 89 -21 20 -185
182 -364 360 -178 177 -328 322 -333 322 -5 0 -9 5 -9 12 0 6 -19 30 -42 54
-24 23 -55 55 -69 70 -27 31 -188 179 -221 204 -11 8 -30 25 -43 38 -25 23
-35 27 -35 14z"/>
<path d="M170 2090 c18 -16 37 -30 42 -30 6 0 -4 14 -22 30 -18 17 -37 30 -42
30 -6 0 4 -13 22 -30z"/>
<path d="M238 2029 c44 -53 146 -159 153 -159 5 0 3 11 -3 25 -6 14 -15 25
-19 25 -10 0 -89 76 -89 86 0 9 -41 44 -51 44 -5 0 -1 -9 9 -21z"/>
<path d="M1200 1062 c0 -5 19 -27 43 -49 23 -22 54 -54 68 -69 14 -16 86 -89
160 -162 74 -73 143 -141 154 -152 144 -145 298 -290 306 -290 7 0 -7 17 -30
38 -22 20 -41 43 -41 50 0 6 -3 12 -7 12 -13 0 -113 94 -113 105 0 6 -10 17
-21 25 -12 8 -52 43 -88 78 -83 79 -72 68 -131 130 -27 28 -54 52 -60 52 -5 0
-10 9 -10 20 0 11 -4 20 -9 20 -14 0 -109 89 -171 160 -34 38 -50 49 -50 32z"/>
</g>
</svg>
