<?xml version="1.0" standalone="no"?>
<!DOCTYPE svg PUBLIC "-//W3C//DTD SVG 20010904//EN"
 "http://www.w3.org/TR/2001/REC-SVG-20010904/DTD/svg10.dtd">
<svg version="1.0" xmlns="http://www.w3.org/2000/svg"
 width="512.000000pt" height="512.000000pt" viewBox="0 0 512.000000 512.000000"
 preserveAspectRatio="xMidYMid meet">

<g transform="translate(0.000000,512.000000) scale(0.100000,-0.100000)"
fill="#000000" stroke="none">
<path d="M1175 4406 c-58 -27 -118 -89 -149 -155 l-21 -46 -3 -1627 -2 -1627
22 -58 c27 -73 113 -163 174 -181 60 -17 2668 -17 2728 0 61 18 147 108 175
181 l21 59 -2 1281 -3 1282 -36 76 c-40 85 -145 202 -506 567 -144 145 -211
206 -246 222 -110 51 -84 50 -1127 50 l-975 0 -50 -24z m2077 -149 c47 -23
100 -73 296 -275 364 -377 387 -403 411 -467 21 -55 21 -62 21 -1303 l0 -1248
-22 -44 c-13 -24 -36 -53 -51 -64 -28 -21 -32 -21 -1347 -21 -1315 0 -1319 0
-1347 21 -15 11 -38 40 -50 64 l-23 44 0 1596 0 1596 23 44 c12 25 37 55 56
68 l35 22 970 -2 971 -3 57 -28z"/>
<path d="M1580 3980 c-19 -19 -20 -33 -20 -265 0 -232 1 -246 20 -265 29 -29
74 -26 99 6 20 25 21 39 21 261 l0 234 -25 24 c-29 30 -68 32 -95 5z"/>
<path d="M2045 3975 l-25 -24 0 -239 c0 -236 0 -239 23 -260 29 -27 71 -28 97
-2 19 19 20 33 20 265 0 232 -1 246 -20 265 -27 27 -66 25 -95 -5z"/>
<path d="M2512 3977 c-21 -23 -22 -31 -22 -265 0 -229 1 -243 20 -262 27 -27
71 -26 98 3 21 23 22 31 22 263 0 238 0 241 -23 262 -30 28 -68 28 -95 -1z"/>
<path d="M2980 3980 c-19 -19 -20 -33 -20 -265 0 -232 1 -246 20 -265 29 -29
74 -26 99 6 20 25 21 39 21 261 l0 234 -25 24 c-29 30 -68 32 -95 5z"/>
<path d="M1770 2429 c-83 -16 -170 -94 -198 -178 -8 -24 -12 -164 -12 -460 0
-407 1 -428 21 -471 27 -60 74 -107 134 -136 l50 -24 795 0 795 0 50 24 c60
29 107 76 134 136 20 43 21 64 21 471 0 480 -1 487 -72 560 -22 22 -61 51 -86
62 -47 22 -52 22 -817 24 -423 0 -790 -3 -815 -8z m1583 -148 c15 -8 36 -29
47 -46 19 -31 20 -52 20 -445 l0 -412 -39 -39 -39 -39 -782 0 -782 0 -39 39
-39 39 0 414 c0 373 2 416 17 438 23 33 42 48 78 59 18 6 338 9 780 8 626 -2
755 -4 778 -16z"/>
</g>
</svg>
