<svg xmlns="http://www.w3.org/2000/svg" width="512" height="485" viewBox="0 0 512 485" version="1.1"><path d="M 10.580 204.183 C 3.622 220.227, 0.540 239.205, 1.299 261.335 C 2.377 292.751, 10.841 316.484, 30.068 342 C 41.573 357.268, 48.073 361.018, 53.545 355.545 C 57.894 351.196, 56.977 347.563, 49.361 338.981 C 28.116 315.040, 17.865 288.033, 17.865 256 C 17.865 240.680, 19.509 229.927, 23.967 216.083 C 25.635 210.904, 27 206.387, 27 206.046 C 27 205.476, 14.618 198, 13.675 198 C 13.448 198, 12.055 200.782, 10.580 204.183 M 43.626 217.861 C 42.710 218.873, 40.772 224.156, 39.319 229.600 C 36.970 238.403, 36.677 241.329, 36.677 256 C 36.677 270.559, 36.980 273.631, 39.248 282.119 C 43.835 299.286, 52.853 315.780, 63.810 327.048 C 70.526 333.954, 74.253 334.838, 78.545 330.545 C 82.609 326.481, 81.917 322.175, 76.179 315.831 C 66.628 305.269, 58.977 291.171, 55.378 277.500 C 52.759 267.552, 52.784 244.282, 55.424 234.500 C 56.463 230.650, 57.318 226.938, 57.323 226.250 C 57.329 225.563, 57.805 225, 58.381 225 C 60.084 225, 56.896 222.510, 50.896 219.154 C 45.483 216.127, 45.235 216.083, 43.626 217.861 M 75.376 234.804 C 72.662 236.573, 70.757 253.603, 72.084 264.236 C 73.982 279.441, 79.817 292.278, 89.537 302.634 C 95.449 308.932, 99.348 309.743, 103.545 305.545 C 107.467 301.624, 106.861 297.513, 101.399 290.993 C 91.770 279.496, 87.007 264.083, 88.670 249.802 C 89.295 244.439, 89.255 241.650, 88.545 241.111 C 84.942 238.374, 76.270 234.221, 75.376 234.804 M 119.221 353.852 L 119.500 448.703 123 455.564 C 125.546 460.554, 127.863 463.457, 131.500 466.209 C 141.790 473.995, 133.331 473.500, 256 473.500 C 358.349 473.500, 365.832 473.384, 370.590 471.723 C 381.187 468.023, 388.736 459.950, 391.491 449.373 C 393.045 443.405, 393.407 428.025, 392.176 420.206 C 391.534 416.126, 391.126 415.694, 384 411.558 L 376.500 407.205 376 427.033 C 375.431 449.586, 375.101 450.600, 366.980 454.750 L 362.576 457 256 457 L 149.424 457 145.020 454.750 C 136.570 450.432, 136.541 450.320, 136.202 421.429 L 135.904 396 242.202 395.882 C 300.666 395.817, 349.834 395.477, 351.465 395.128 C 354.246 394.532, 353.648 394.042, 341.859 387.246 L 329.287 380 232.644 380 L 136 380 135.900 326.250 C 135.845 296.688, 135.490 271.384, 135.110 270.019 C 134.648 268.361, 132.111 266.148, 127.459 263.343 C 123.632 261.035, 120.149 259.114, 119.721 259.073 C 119.292 259.033, 119.067 301.683, 119.221 353.852 M 164.044 301.750 C 164.101 323.724, 165.582 328.024, 174.500 332.119 C 178.128 333.785, 181.427 333.947, 210 333.860 C 227.325 333.807, 242.760 333.479, 244.300 333.132 C 246.857 332.555, 245.936 331.828, 233.664 324.750 L 220.227 317 200.614 317 L 181 317 180.864 303.250 C 180.789 295.688, 180.538 290.475, 180.305 291.666 C 179.900 293.744, 179.574 293.651, 172.413 289.416 C 168.304 286.987, 164.730 285, 164.471 285 C 164.212 285, 164.020 292.538, 164.044 301.750 M 235.500 407.326 C 229.892 409.520, 227.870 411.136, 224.933 415.767 C 222.513 419.583, 222.003 421.451, 222.016 426.446 C 222.037 433.966, 224.734 439.164, 230.845 443.458 L 235.172 446.500 256 446.500 L 276.828 446.500 281.164 443.456 C 295.297 433.533, 292.377 412.588, 276.101 407.138 C 271.535 405.609, 239.508 405.758, 235.500 407.326 M 238.966 425.064 C 238.143 426.601, 238.170 427.500, 239.073 428.588 C 240.062 429.779, 243.234 429.998, 256.285 429.774 C 269.937 429.540, 272.439 429.256, 273.334 427.834 C 274.095 426.626, 274.023 425.732, 273.070 424.584 C 271.971 423.261, 269.148 423, 255.913 423 C 240.930 423, 240.010 423.112, 238.966 425.064" stroke="none" fill="#4fe6e0" fill-rule="evenodd"/><path d="M 147 38.984 C 135.714 40.938, 127.684 46.835, 122.800 56.754 L 119.500 63.456 119.222 160.981 L 118.944 258.506 126.677 263.003 C 132.082 266.146, 134.620 268.253, 135.106 270 C 135.488 271.375, 135.845 234.813, 135.900 188.750 L 136 105 256 105 L 376 105 376 242.482 L 376 379.963 353.053 380.232 L 330.107 380.500 342.277 387.495 C 353.722 394.073, 354.270 394.527, 351.474 395.126 C 349.838 395.477, 354.688 395.817, 362.250 395.882 L 376 396 376 401.473 L 376 406.946 383.943 411.528 C 391.343 415.796, 391.912 416.361, 392.275 419.805 C 392.489 421.837, 392.739 343.607, 392.832 245.960 C 393.016 51.029, 393.335 61.708, 387.062 52.590 C 383.446 47.335, 378.329 43.361, 371.632 40.609 C 366.529 38.512, 365.896 38.499, 259 38.353 C 199.875 38.271, 149.475 38.556, 147 38.984 M 145.020 57.250 C 137.631 61.026, 136.552 63.380, 136.164 76.570 L 135.828 88 256 88 L 376.172 88 375.836 76.570 C 375.448 63.380, 374.369 61.026, 366.980 57.250 L 362.576 55 256 55 L 149.424 55 145.020 57.250 M 234.500 64.124 C 229.320 67.037, 228.345 73.436, 232.455 77.545 C 234.905 79.996, 234.941 80, 256 80 C 277.059 80, 277.095 79.996, 279.545 77.545 C 282.567 74.524, 282.814 69.228, 280.090 65.861 C 278.206 63.532, 277.895 63.497, 257.340 63.250 C 243.318 63.081, 235.846 63.367, 234.500 64.124 M 175.500 151.480 C 170.571 153.250, 166.465 157.665, 165.067 162.697 C 164.381 165.168, 164.009 187.164, 164.006 225.514 L 164 284.527 171.900 289.137 L 179.801 293.747 180.400 290.749 C 180.730 289.099, 181 260.581, 181 227.375 L 181 167 231.228 167 L 281.455 167 306.228 191.772 L 331 216.545 331 266.764 L 331 316.983 276.020 317.242 L 221.039 317.500 234.082 325 C 246.068 331.893, 246.896 332.553, 244.312 333.151 C 242.765 333.509, 262.911 333.734, 289.079 333.651 L 336.658 333.500 340.438 330.616 C 348.088 324.779, 347.953 325.893, 347.978 268.432 C 347.997 224.671, 347.773 216.586, 346.411 211.932 C 344.922 206.840, 343.215 204.885, 319.161 180.721 C 301.803 163.282, 292.044 154.223, 289 152.721 C 284.543 150.521, 283.994 150.498, 232 150.272 C 188.475 150.084, 178.816 150.290, 175.500 151.480 M 40.337 158.250 C 32.894 165.100, 21.931 180.251, 16.196 191.612 L 13.180 197.587 20.090 201.480 C 23.890 203.620, 27 205.838, 27 206.408 C 27 206.978, 28.759 204.006, 30.908 199.803 C 36.009 189.829, 41.259 182.221, 49.390 173.019 C 56.974 164.435, 57.887 160.796, 53.545 156.455 C 49.744 152.654, 45.842 153.184, 40.337 158.250 M 458.455 156.455 C 454.170 160.739, 455.057 164.185, 462.678 172.881 C 485.910 199.386, 496.884 232.243, 493.917 266.409 C 491.515 294.079, 482.105 316.192, 463.384 338.167 C 457.625 344.925, 456 347.522, 456 349.962 C 456 354.289, 459.858 358, 464.356 358 C 467.352 358, 468.707 357.032, 474.715 350.599 C 491.048 333.109, 503.029 309.514, 508.687 283.695 C 511.239 272.047, 511.239 239.953, 508.687 228.305 C 503.029 202.486, 491.048 178.891, 474.715 161.401 C 468.707 154.968, 467.352 154, 464.356 154 C 462.030 154, 460.111 154.798, 458.455 156.455 M 63 185.864 C 55.912 193.350, 46 208.986, 46 212.683 C 46 213.957, 45.598 215, 45.107 215 C 44.616 215, 43.931 215.739, 43.584 216.641 C 43.099 217.905, 43.255 218.034, 44.258 217.201 C 45.234 216.391, 47.224 217.083, 52.162 219.948 L 58.763 223.777 61.131 218.681 C 64.585 211.249, 70.578 202.257, 76.135 196.169 C 79.993 191.942, 81 190.122, 81 187.374 C 81 182.772, 77.304 179, 72.796 179 C 70.020 179, 68.476 180.083, 63 185.864 M 433.455 181.455 C 429.262 185.647, 430.117 189.401, 437.111 197.500 C 446.594 208.481, 452.709 219.921, 456.623 234.002 C 458.007 238.982, 458.428 244.121, 458.428 256 C 458.428 267.879, 458.007 273.018, 456.623 277.998 C 452.754 291.920, 446.866 302.920, 437.008 314.645 C 430.109 322.851, 429.314 326.405, 433.455 330.545 C 437.708 334.799, 441.485 333.943, 447.995 327.249 C 459.232 315.693, 468.071 299.606, 472.744 282.206 C 475.055 273.600, 475.350 270.630, 475.350 256 C 475.350 241.370, 475.055 238.400, 472.744 229.794 C 468.025 212.221, 457.580 193.494, 446.957 183.557 C 441.192 178.164, 437.344 177.565, 433.455 181.455 M 197.455 183.455 L 195 185.909 195 241.844 C 195 295.422, 195.081 297.878, 196.911 300.139 L 198.822 302.500 255.820 302.774 L 312.817 303.048 314.909 300.389 C 316.947 297.797, 317 296.771, 317 259.642 L 317 221.554 296.723 201.277 L 276.446 181 238.177 181 L 199.909 181 197.455 183.455 M 212 242.500 L 212 287 256 287 L 300 287 300 257.738 L 300 228.476 284.738 213.238 L 269.477 198 240.738 198 L 212 198 212 242.500 M 91.453 207.176 C 86.979 211.103, 80.612 220.366, 77.412 227.604 C 74.640 233.871, 74.514 234.667, 76.297 234.667 C 77.011 234.667, 80.373 236.295, 83.768 238.285 C 87.164 240.275, 90.206 241.475, 90.530 240.952 C 90.853 240.428, 90.903 240, 90.639 240 C 89.355 240, 97.395 225.834, 101.420 221.007 C 106.859 214.484, 107.460 210.369, 103.545 206.455 C 100.082 202.991, 95.937 203.238, 91.453 207.176 M 408.455 206.455 C 404.492 210.417, 405.122 214.594, 410.658 221.060 C 427.999 241.313, 427.993 270.176, 410.644 291.101 C 407.257 295.186, 406 297.567, 406 299.897 C 406 304.205, 409.830 308, 414.178 308 C 421.340 308, 434.297 289.416, 438.579 273 C 439.653 268.884, 440.275 262.650, 440.275 256 C 440.275 249.350, 439.653 243.116, 438.579 239 C 434.297 222.584, 421.340 204, 414.178 204 C 412.041 204, 410.059 204.850, 408.455 206.455 M 229.304 212.956 C 227.108 214.295, 225.917 215.936, 225.495 218.202 C 225.158 220.016, 225.021 232.002, 225.191 244.838 L 225.500 268.177 228.306 270.588 C 231.109 272.998, 231.130 273, 256.133 273 L 281.154 273 284.144 270.010 L 287.135 267.019 286.817 250.526 L 286.500 234.032 276.500 223.945 C 271 218.398, 265.285 213.215, 263.800 212.429 C 261.821 211.382, 257.275 211.001, 246.800 211.004 C 234.390 211.007, 232.078 211.265, 229.304 212.956 M 242 242 L 242 256 256 256 L 270 256 270 248.723 L 270 241.446 263.225 234.723 L 256.450 228 249.225 228 L 242 228 242 242" stroke="none" fill="#3fb0ee" fill-rule="evenodd"/></svg>