<?xml version="1.0" encoding="iso-8859-1"?>
<!-- Uploaded to: SVG Repo, www.svgrepo.com, Generator: SVG Repo Mixer Tools -->
<svg height="800px" width="800px" version="1.1" id="Layer_1" xmlns="http://www.w3.org/2000/svg" xmlns:xlink="http://www.w3.org/1999/xlink" 
	 viewBox="0 0 512 512" xml:space="preserve">
<circle style="fill:#366796;" cx="256" cy="256" r="256"/>
<path style="fill:#273B7A;" d="M337.672,89.393l-5.725,6.309c-17.861-16.856-38.069-29.943-58.708-31.63
	c-63.21-5.172-121.247,28.494-125.271,90.962c-4.022,62.466,28.157,100.392,28.157,100.392l49.004,49.004l-30.599,128.498
	l78.438,78.5c130.97-8.573,235.055-115.621,238.911-247.825L337.672,89.393z"/>
<path style="fill:#71E2EF;" d="M312.889,434.424H199.111c-2.353,0-4.579-1.067-6.051-2.905c-1.472-1.834-2.032-4.239-1.522-6.537
	l56.889-256c0.788-3.55,3.936-6.073,7.573-6.073c3.637,0,6.785,2.526,7.573,6.073l56.889,256c0.51,2.298-0.048,4.703-1.522,6.537
	C317.468,433.357,315.242,434.424,312.889,434.424z M208.781,418.909h94.437L256,206.427L208.781,418.909z"/>
<path style="fill:#38C6D9;" d="M320.462,424.982l-56.889-256c-0.788-3.55-3.936-6.073-7.573-6.073c-0.195,0-0.383,0.036-0.574,0.05
	v46.052l0.574-2.584l47.22,212.482h-47.794v15.515h57.463c2.353,0,4.579-1.067,6.051-2.905
	C320.412,429.685,320.971,427.28,320.462,424.982z"/>
<circle style="fill:#FFC61B;" cx="256" cy="170.667" r="28.444"/>
<path style="fill:#D48B07;" d="M256,142.222c-0.193,0-0.381,0.026-0.574,0.029v56.83c0.193,0.003,0.381,0.029,0.574,0.029
	c15.71,0,28.444-12.734,28.444-28.444S271.71,142.222,256,142.222z"/>
<g>
	<path style="fill:#FEE187;" d="M291.959,211.649c-1.545,0-3.087-0.59-4.267-1.767c-2.357-2.355-2.357-6.177,0-8.532
		c17.475-17.477,17.475-45.911,0-63.388c-17.479-17.475-45.909-17.475-63.388,0c-17.475,17.477-17.475,45.911,0,63.388
		c2.357,2.355,2.357,6.177,0,8.532c-2.357,2.357-6.175,2.357-8.532,0c-22.181-22.18-22.181-58.271,0-80.451
		c22.178-22.182,58.273-22.182,80.451,0c22.181,22.18,22.181,58.271,0,80.451C295.046,211.061,293.504,211.649,291.959,211.649z"/>
	<path style="fill:#FEE187;" d="M312.384,232.074c-1.545,0-3.088-0.59-4.267-1.767c-2.357-2.355-2.357-6.177,0-8.532
		c13.921-13.921,21.587-32.432,21.587-52.117s-7.666-38.197-21.587-52.117s-32.43-21.59-52.117-21.59
		c-19.687,0-38.197,7.666-52.117,21.587s-21.587,32.432-21.587,52.117s7.666,38.197,21.587,52.117c2.357,2.355,2.357,6.177,0,8.532
		c-2.357,2.357-6.175,2.357-8.532,0c-16.2-16.2-25.122-37.74-25.122-60.65s8.923-44.449,25.122-60.65
		c33.44-33.444,87.859-33.444,121.299,0c16.2,16.2,25.122,37.74,25.122,60.65s-8.923,44.449-25.122,60.65
		C315.471,231.484,313.928,232.074,312.384,232.074z"/>
	<path style="fill:#FEE187;" d="M333.405,254.504c-1.545,0-3.088-0.59-4.267-1.767c-2.357-2.355-2.357-6.177,0-8.532
		c40.329-40.329,40.329-105.948,0-146.279c-19.537-19.535-45.511-30.296-73.14-30.296s-53.603,10.759-73.14,30.296
		c-19.534,19.537-30.292,45.509-30.292,73.137c0,27.629,10.759,53.603,30.294,73.14c2.357,2.355,2.357,6.177,0,8.532
		c-2.353,2.357-6.175,2.357-8.532,0c-21.816-21.814-33.83-50.819-33.83-81.672c0-30.851,12.014-59.856,33.83-81.67
		C196.143,67.577,225.149,55.561,256,55.561s59.857,12.016,81.672,33.832c45.034,45.034,45.034,118.308,0,163.342
		C336.493,253.914,334.95,254.504,333.405,254.504z"/>
</g>
<g>
	<path style="fill:#FFC61B;" d="M296.226,129.431c-11.235-11.236-26.041-16.77-40.8-16.622v12.062
		c11.667-0.148,23.383,4.21,32.268,13.093c17.475,17.477,17.475,45.911,0,63.388c-2.357,2.355-2.357,6.177,0,8.532
		c1.179,1.179,2.722,1.767,4.267,1.767s3.088-0.59,4.267-1.767C318.407,187.702,318.407,151.611,296.226,129.431z"/>
	<path style="fill:#FFC61B;" d="M316.65,109.006c-16.867-16.868-39.069-25.217-61.225-25.069v12.028
		c0.191-0.002,0.383-0.014,0.574-0.014c19.687,0,38.197,7.666,52.117,21.587s21.587,32.432,21.587,52.117
		s-7.666,38.197-21.587,52.117c-2.357,2.355-2.357,6.177,0,8.532c1.179,1.179,2.722,1.767,4.267,1.767
		c1.545,0,3.087-0.59,4.267-1.767c16.2-16.2,25.122-37.74,25.122-60.65S332.85,125.207,316.65,109.006z"/>
	<path style="fill:#FFC61B;" d="M337.672,89.393C315.857,67.577,286.851,55.561,256,55.561c-0.191,0-0.383,0.014-0.574,0.014v12.067
		c0.191,0,0.383-0.014,0.574-0.014c27.627,0,53.603,10.761,73.14,30.296c40.329,40.331,40.329,105.95,0,146.279
		c-2.357,2.355-2.357,6.177,0,8.532c1.179,1.179,2.722,1.767,4.267,1.767c1.545,0,3.087-0.59,4.267-1.767
		C382.705,207.701,382.705,134.428,337.672,89.393z"/>
</g>
<path style="fill:#38C6D9;" d="M288.754,349.091h-65.508c-4.284,0-7.758-3.474-7.758-7.758s3.474-7.758,7.758-7.758h65.508
	c4.284,0,7.758,3.474,7.758,7.758S293.038,349.091,288.754,349.091z"/>
</svg>