<?xml version="1.0" standalone="no"?>
<!DOCTYPE svg PUBLIC "-//W3C//DTD SVG 20010904//EN"
 "http://www.w3.org/TR/2001/REC-SVG-20010904/DTD/svg10.dtd">
<svg version="1.0" xmlns="http://www.w3.org/2000/svg"
 width="425.000000pt" height="422.000000pt" viewBox="0 0 425.000000 422.000000"
 preserveAspectRatio="xMidYMid meet">

<g transform="translate(0.000000,422.000000) scale(0.100000,-0.100000)"
fill="#000000" stroke="none">
<path d="M220 2125 l0 -1875 1875 0 1875 0 0 1875 0 1875 -1875 0 -1875 0 0
-1875z m2297 1504 c-3 -12 -142 -500 -309 -1085 l-303 -1064 -163 0 c-151 0
-163 1 -158 18 32 113 41 145 57 197 9 33 27 94 38 135 23 81 76 267 281 985
72 253 154 539 181 635 27 96 52 181 54 188 3 9 46 12 166 12 160 0 161 0 156
-21z m479 -267 c15 -10 614 -760 620 -777 4 -9 -117 -167 -306 -405 l-313
-390 -158 0 c-88 0 -159 2 -159 6 0 4 563 715 607 766 13 14 -18 57 -296 403
-171 213 -311 391 -311 396 0 11 300 12 316 1z m-1578 -19 c-8 -10 -149 -186
-313 -391 -211 -264 -294 -376 -288 -385 6 -6 143 -178 305 -382 162 -203 298
-376 302 -382 6 -10 -27 -13 -152 -13 l-158 0 -313 391 c-172 215 -310 397
-308 403 6 14 556 706 595 749 l26 27 159 0 c152 0 159 -1 145 -17z m-120
-2268 c2 -11 31 -105 65 -210 l60 -190 39 120 c21 66 50 162 65 213 l27 92 69
0 c62 0 68 -2 62 -17 -7 -18 -30 -79 -137 -378 l-54 -150 -70 -3 -70 -3 -97
268 c-53 148 -97 272 -97 276 0 5 30 7 67 5 59 -3 68 -6 71 -23z m554 -80 l-5
-105 122 0 121 0 0 105 0 105 60 0 60 0 0 -275 0 -275 -60 0 -60 0 0 115 0
115 -121 0 -121 0 3 -112 4 -113 -58 0 -58 0 -2 273 -2 272 61 0 61 0 -5 -105z
m759 95 c61 -17 102 -52 134 -115 26 -52 30 -69 30 -144 0 -74 -4 -94 -29
-144 -53 -109 -128 -140 -329 -135 l-117 3 -3 273 -2 272 140 0 c77 0 156 -5
176 -10z m351 -210 l-3 -220 140 0 141 0 0 -55 0 -55 -200 0 -200 0 0 275 0
275 63 0 62 0 -3 -220z"/>
<path d="M2420 830 l0 -170 68 0 c117 0 165 50 166 171 0 117 -52 169 -171
169 l-63 0 0 -170z"/>
<path d="M4037 205 c-15 -19 -57 -48 -94 -67 l-68 -33 -1764 -3 c-1584 -2
-1771 -1 -1819 14 -64 18 -93 35 -145 83 l-39 36 17 -40 c25 -63 67 -107 130
-140 l59 -30 1755 -3 c1939 -2 1814 -6 1903 61 39 30 109 139 97 152 -3 2 -17
-11 -32 -30z"/>
</g>
</svg>
